<?xml version="1.0" encoding="utf-8"?>
<!-- Generator: Adobe Illustrator 16.0.0, SVG Export Plug-In . SVG Version: 6.00 Build 0)  -->
<!DOCTYPE svg PUBLIC "-//W3C//DTD SVG 1.1//EN" "http://www.w3.org/Graphics/SVG/1.1/DTD/svg11.dtd">
<svg version="1.1" id="Layer_1" xmlns="http://www.w3.org/2000/svg" xmlns:xlink="http://www.w3.org/1999/xlink" x="0px" y="0px"
	 width="55.12px" height="55.108px" viewBox="0 0 55.12 55.108" enable-background="new 0 0 55.12 55.108" xml:space="preserve">
<path fill="#FFFFFF" d="M2.875,43.284c4.54,2.911,9.932,4.609,15.724,4.609c19.046,0,29.805-16.086,29.158-30.515
	c2.003-1.444,3.743-3.251,5.118-5.31c-1.84,0.815-3.818,1.368-5.891,1.615c2.117-1.267,3.743-3.277,4.509-5.675
	c-1.981,1.176-4.178,2.03-6.513,2.491c-1.872-1.994-4.538-3.239-7.488-3.239c-6.621,0-11.488,6.179-9.992,12.596
	c-8.526-0.427-16.085-4.512-21.142-10.719C3.669,13.748,4.962,19.78,9.531,22.833c-1.683-0.053-3.266-0.516-4.648-1.284
	c-0.111,4.753,3.294,9.198,8.228,10.188c-1.444,0.394-3.025,0.482-4.63,0.175c1.302,4.077,5.091,7.041,9.581,7.125
	C13.75,42.418,8.316,43.927,2.875,43.284z"/>
</svg>
